<svg aria-roledescription="er" viewBox="0 0 225.4684600830078 518" style="max-width: 225.468px; background-color: white;" xmlns:xlink="http://www.w3.org/1999/xlink" xmlns="http://www.w3.org/2000/svg" width="100%" id="mermaid-0"><style>#mermaid-0{font-family:"trebuchet ms",verdana,arial,sans-serif;font-size:16px;fill:#000000;}#mermaid-0 .error-icon{fill:#552222;}#mermaid-0 .error-text{fill:#552222;stroke:#552222;}#mermaid-0 .edge-thickness-normal{stroke-width:2px;}#mermaid-0 .edge-thickness-thick{stroke-width:3.5px;}#mermaid-0 .edge-pattern-solid{stroke-dasharray:0;}#mermaid-0 .edge-pattern-dashed{stroke-dasharray:3;}#mermaid-0 .edge-pattern-dotted{stroke-dasharray:2;}#mermaid-0 .marker{fill:#000000;stroke:#000000;}#mermaid-0 .marker.cross{stroke:#000000;}#mermaid-0 svg{font-family:"trebuchet ms",verdana,arial,sans-serif;font-size:16px;}#mermaid-0 .entityBox{fill:#cde498;stroke:#13540c;}#mermaid-0 .attributeBoxOdd{fill:#ffffff;stroke:#13540c;}#mermaid-0 .attributeBoxEven{fill:#f2f2f2;stroke:#13540c;}#mermaid-0 .relationshipLabelBox{fill:hsl(78.1578947368, 58.4615384615%, 84.5098039216%);opacity:0.7;background-color:hsl(78.1578947368, 58.4615384615%, 84.5098039216%);}#mermaid-0 .relationshipLabelBox rect{opacity:0.5;}#mermaid-0 .relationshipLine{stroke:#000000;}#mermaid-0 .entityTitleText{text-anchor:middle;font-size:18px;fill:#000000;}#mermaid-0 :root{--mermaid-font-family:"trebuchet ms",verdana,arial,sans-serif;}</style><g/><defs><marker orient="auto" markerHeight="18" markerWidth="18" refY="9" refX="0" id="ONLY_ONE_START"><path d="M9,0 L9,18 M15,0 L15,18" fill="none" stroke="gray"/></marker></defs><defs><marker orient="auto" markerHeight="18" markerWidth="18" refY="9" refX="18" id="ONLY_ONE_END"><path d="M3,0 L3,18 M9,0 L9,18" fill="none" stroke="gray"/></marker></defs><defs><marker orient="auto" markerHeight="18" markerWidth="30" refY="9" refX="0" id="ZERO_OR_ONE_START"><circle r="6" cy="9" cx="21" fill="white" stroke="gray"/><path d="M9,0 L9,18" fill="none" stroke="gray"/></marker></defs><defs><marker orient="auto" markerHeight="18" markerWidth="30" refY="9" refX="30" id="ZERO_OR_ONE_END"><circle r="6" cy="9" cx="9" fill="white" stroke="gray"/><path d="M21,0 L21,18" fill="none" stroke="gray"/></marker></defs><defs><marker orient="auto" markerHeight="36" markerWidth="45" refY="18" refX="18" id="ONE_OR_MORE_START"><path d="M0,18 Q 18,0 36,18 Q 18,36 0,18 M42,9 L42,27" fill="none" stroke="gray"/></marker></defs><defs><marker orient="auto" markerHeight="36" markerWidth="45" refY="18" refX="27" id="ONE_OR_MORE_END"><path d="M3,9 L3,27 M9,18 Q27,0 45,18 Q27,36 9,18" fill="none" stroke="gray"/></marker></defs><defs><marker orient="auto" markerHeight="36" markerWidth="57" refY="18" refX="18" id="ZERO_OR_MORE_START"><circle r="6" cy="18" cx="48" fill="white" stroke="gray"/><path d="M0,18 Q18,0 36,18 Q18,36 0,18" fill="none" stroke="gray"/></marker></defs><defs><marker orient="auto" markerHeight="36" markerWidth="57" refY="18" refX="39" id="ZERO_OR_MORE_END"><circle r="6" cy="18" cx="9" fill="white" stroke="gray"/><path d="M21,18 Q39,0 57,18 Q39,36 21,18" fill="none" stroke="gray"/></marker></defs><path style="stroke: gray; fill: none;" marker-start="url(#ZERO_OR_MORE_START)" marker-end="url(#ZERO_OR_ONE_END)" d="M112.7342300415039,220L112.7342300415039,228.33333333333334C112.7342300415039,236.66666666666666,112.7342300415039,253.33333333333334,112.7342300415039,270C112.7342300415039,286.6666666666667,112.7342300415039,303.3333333333333,112.7342300415039,311.6666666666667L112.7342300415039,320" class="er relationshipLine"/><g transform="translate(20,320 )" id="entity-User-996c11b2-5668-46ba-8651-25294a0caf3d"><rect height="178" width="185.4684600830078" y="0" x="0" class="er entityBox"/><text style="dominant-baseline: middle; text-anchor: middle; font-size: 12px;" transform="translate(92.7342300415039,12)" y="0" x="0" id="text-entity-User-996c11b2-5668-46ba-8651-25294a0caf3d" class="er entityLabel">User</text><rect height="22" width="54.095550537109375" y="24" x="0" class="er attributeBoxOdd"/><text style="dominant-baseline: middle; font-size: 10.2px;" transform="translate(5,35)" y="0" x="0" id="text-entity-User-996c11b2-5668-46ba-8651-25294a0caf3d-attr-1-type" class="er entityLabel">Int</text><rect height="22" width="61.472686767578125" y="24" x="54.095550537109375" class="er attributeBoxOdd"/><text style="dominant-baseline: middle; font-size: 10.2px;" transform="translate(59.095550537109375,35)" y="0" x="0" id="text-entity-User-996c11b2-5668-46ba-8651-25294a0caf3d-attr-1-name" class="er entityLabel">id</text><rect height="22" width="22.68768310546875" y="24" x="115.5682373046875" class="er attributeBoxOdd"/><text style="dominant-baseline: middle; font-size: 10.2px;" transform="translate(120.5682373046875,35)" y="0" x="0" id="text-entity-User-996c11b2-5668-46ba-8651-25294a0caf3d-attr-1-key" class="er entityLabel">PK</text><rect height="22" width="47.21253967285156" y="24" x="138.25592041015625" class="er attributeBoxOdd"/><text style="dominant-baseline: middle; font-size: 10.2px;" transform="translate(143.25592041015625,35)" y="0" x="0" id="text-entity-User-996c11b2-5668-46ba-8651-25294a0caf3d-attr-1-comment" class="er entityLabel"/><rect height="22" width="54.095550537109375" y="46" x="0" class="er attributeBoxEven"/><text style="dominant-baseline: middle; font-size: 10.2px;" transform="translate(5,57)" y="0" x="0" id="text-entity-User-996c11b2-5668-46ba-8651-25294a0caf3d-attr-2-type" class="er entityLabel">String</text><rect height="22" width="61.472686767578125" y="46" x="54.095550537109375" class="er attributeBoxEven"/><text style="dominant-baseline: middle; font-size: 10.2px;" transform="translate(59.095550537109375,57)" y="0" x="0" id="text-entity-User-996c11b2-5668-46ba-8651-25294a0caf3d-attr-2-name" class="er entityLabel">username</text><rect height="22" width="22.68768310546875" y="46" x="115.5682373046875" class="er attributeBoxEven"/><text style="dominant-baseline: middle; font-size: 10.2px;" transform="translate(120.5682373046875,57)" y="0" x="0" id="text-entity-User-996c11b2-5668-46ba-8651-25294a0caf3d-attr-2-key" class="er entityLabel"/><rect height="22" width="47.21253967285156" y="46" x="138.25592041015625" class="er attributeBoxEven"/><text style="dominant-baseline: middle; font-size: 10.2px;" transform="translate(143.25592041015625,57)" y="0" x="0" id="text-entity-User-996c11b2-5668-46ba-8651-25294a0caf3d-attr-2-comment" class="er entityLabel"/><rect height="22" width="54.095550537109375" y="68" x="0" class="er attributeBoxOdd"/><text style="dominant-baseline: middle; font-size: 10.2px;" transform="translate(5,79)" y="0" x="0" id="text-entity-User-996c11b2-5668-46ba-8651-25294a0caf3d-attr-3-type" class="er entityLabel">String</text><rect height="22" width="61.472686767578125" y="68" x="54.095550537109375" class="er attributeBoxOdd"/><text style="dominant-baseline: middle; font-size: 10.2px;" transform="translate(59.095550537109375,79)" y="0" x="0" id="text-entity-User-996c11b2-5668-46ba-8651-25294a0caf3d-attr-3-name" class="er entityLabel">name</text><rect height="22" width="22.68768310546875" y="68" x="115.5682373046875" class="er attributeBoxOdd"/><text style="dominant-baseline: middle; font-size: 10.2px;" transform="translate(120.5682373046875,79)" y="0" x="0" id="text-entity-User-996c11b2-5668-46ba-8651-25294a0caf3d-attr-3-key" class="er entityLabel"/><rect height="22" width="47.21253967285156" y="68" x="138.25592041015625" class="er attributeBoxOdd"/><text style="dominant-baseline: middle; font-size: 10.2px;" transform="translate(143.25592041015625,79)" y="0" x="0" id="text-entity-User-996c11b2-5668-46ba-8651-25294a0caf3d-attr-3-comment" class="er entityLabel">nullable</text><rect height="22" width="54.095550537109375" y="90" x="0" class="er attributeBoxEven"/><text style="dominant-baseline: middle; font-size: 10.2px;" transform="translate(5,101)" y="0" x="0" id="text-entity-User-996c11b2-5668-46ba-8651-25294a0caf3d-attr-4-type" class="er entityLabel">String</text><rect height="22" width="61.472686767578125" y="90" x="54.095550537109375" class="er attributeBoxEven"/><text style="dominant-baseline: middle; font-size: 10.2px;" transform="translate(59.095550537109375,101)" y="0" x="0" id="text-entity-User-996c11b2-5668-46ba-8651-25294a0caf3d-attr-4-name" class="er entityLabel">password</text><rect height="22" width="22.68768310546875" y="90" x="115.5682373046875" class="er attributeBoxEven"/><text style="dominant-baseline: middle; font-size: 10.2px;" transform="translate(120.5682373046875,101)" y="0" x="0" id="text-entity-User-996c11b2-5668-46ba-8651-25294a0caf3d-attr-4-key" class="er entityLabel"/><rect height="22" width="47.21253967285156" y="90" x="138.25592041015625" class="er attributeBoxEven"/><text style="dominant-baseline: middle; font-size: 10.2px;" transform="translate(143.25592041015625,101)" y="0" x="0" id="text-entity-User-996c11b2-5668-46ba-8651-25294a0caf3d-attr-4-comment" class="er entityLabel"/><rect height="22" width="54.095550537109375" y="112" x="0" class="er attributeBoxOdd"/><text style="dominant-baseline: middle; font-size: 10.2px;" transform="translate(5,123)" y="0" x="0" id="text-entity-User-996c11b2-5668-46ba-8651-25294a0caf3d-attr-5-type" class="er entityLabel">String</text><rect height="22" width="61.472686767578125" y="112" x="54.095550537109375" class="er attributeBoxOdd"/><text style="dominant-baseline: middle; font-size: 10.2px;" transform="translate(59.095550537109375,123)" y="0" x="0" id="text-entity-User-996c11b2-5668-46ba-8651-25294a0caf3d-attr-5-name" class="er entityLabel">phone</text><rect height="22" width="22.68768310546875" y="112" x="115.5682373046875" class="er attributeBoxOdd"/><text style="dominant-baseline: middle; font-size: 10.2px;" transform="translate(120.5682373046875,123)" y="0" x="0" id="text-entity-User-996c11b2-5668-46ba-8651-25294a0caf3d-attr-5-key" class="er entityLabel"/><rect height="22" width="47.21253967285156" y="112" x="138.25592041015625" class="er attributeBoxOdd"/><text style="dominant-baseline: middle; font-size: 10.2px;" transform="translate(143.25592041015625,123)" y="0" x="0" id="text-entity-User-996c11b2-5668-46ba-8651-25294a0caf3d-attr-5-comment" class="er entityLabel">nullable</text><rect height="22" width="54.095550537109375" y="134" x="0" class="er attributeBoxEven"/><text style="dominant-baseline: middle; font-size: 10.2px;" transform="translate(5,145)" y="0" x="0" id="text-entity-User-996c11b2-5668-46ba-8651-25294a0caf3d-attr-6-type" class="er entityLabel">DateTime</text><rect height="22" width="61.472686767578125" y="134" x="54.095550537109375" class="er attributeBoxEven"/><text style="dominant-baseline: middle; font-size: 10.2px;" transform="translate(59.095550537109375,145)" y="0" x="0" id="text-entity-User-996c11b2-5668-46ba-8651-25294a0caf3d-attr-6-name" class="er entityLabel">createdAt</text><rect height="22" width="22.68768310546875" y="134" x="115.5682373046875" class="er attributeBoxEven"/><text style="dominant-baseline: middle; font-size: 10.2px;" transform="translate(120.5682373046875,145)" y="0" x="0" id="text-entity-User-996c11b2-5668-46ba-8651-25294a0caf3d-attr-6-key" class="er entityLabel"/><rect height="22" width="47.21253967285156" y="134" x="138.25592041015625" class="er attributeBoxEven"/><text style="dominant-baseline: middle; font-size: 10.2px;" transform="translate(143.25592041015625,145)" y="0" x="0" id="text-entity-User-996c11b2-5668-46ba-8651-25294a0caf3d-attr-6-comment" class="er entityLabel"/><rect height="22" width="54.095550537109375" y="156" x="0" class="er attributeBoxOdd"/><text style="dominant-baseline: middle; font-size: 10.2px;" transform="translate(5,167)" y="0" x="0" id="text-entity-User-996c11b2-5668-46ba-8651-25294a0caf3d-attr-7-type" class="er entityLabel">DateTime</text><rect height="22" width="61.472686767578125" y="156" x="54.095550537109375" class="er attributeBoxOdd"/><text style="dominant-baseline: middle; font-size: 10.2px;" transform="translate(59.095550537109375,167)" y="0" x="0" id="text-entity-User-996c11b2-5668-46ba-8651-25294a0caf3d-attr-7-name" class="er entityLabel">modifiedAt</text><rect height="22" width="22.68768310546875" y="156" x="115.5682373046875" class="er attributeBoxOdd"/><text style="dominant-baseline: middle; font-size: 10.2px;" transform="translate(120.5682373046875,167)" y="0" x="0" id="text-entity-User-996c11b2-5668-46ba-8651-25294a0caf3d-attr-7-key" class="er entityLabel"/><rect height="22" width="47.21253967285156" y="156" x="138.25592041015625" class="er attributeBoxOdd"/><text style="dominant-baseline: middle; font-size: 10.2px;" transform="translate(143.25592041015625,167)" y="0" x="0" id="text-entity-User-996c11b2-5668-46ba-8651-25294a0caf3d-attr-7-comment" class="er entityLabel"/></g><g transform="translate(20,20 )" id="entity-Address-a6a9835c-5726-4bbb-bb87-ad00c10530ae"><rect height="200" width="185.4684600830078" y="0" x="0" class="er entityBox"/><text style="dominant-baseline: middle; text-anchor: middle; font-size: 12px;" transform="translate(92.7342300415039,12)" y="0" x="0" id="text-entity-Address-a6a9835c-5726-4bbb-bb87-ad00c10530ae" class="er entityLabel">Address</text><rect height="22" width="54.095550537109375" y="24" x="0" class="er attributeBoxOdd"/><text style="dominant-baseline: middle; font-size: 10.2px;" transform="translate(5,35)" y="0" x="0" id="text-entity-Address-a6a9835c-5726-4bbb-bb87-ad00c10530ae-attr-1-type" class="er entityLabel">Int</text><rect height="22" width="61.472686767578125" y="24" x="54.095550537109375" class="er attributeBoxOdd"/><text style="dominant-baseline: middle; font-size: 10.2px;" transform="translate(59.095550537109375,35)" y="0" x="0" id="text-entity-Address-a6a9835c-5726-4bbb-bb87-ad00c10530ae-attr-1-name" class="er entityLabel">id</text><rect height="22" width="22.68768310546875" y="24" x="115.5682373046875" class="er attributeBoxOdd"/><text style="dominant-baseline: middle; font-size: 10.2px;" transform="translate(120.5682373046875,35)" y="0" x="0" id="text-entity-Address-a6a9835c-5726-4bbb-bb87-ad00c10530ae-attr-1-key" class="er entityLabel">PK</text><rect height="22" width="47.21253967285156" y="24" x="138.25592041015625" class="er attributeBoxOdd"/><text style="dominant-baseline: middle; font-size: 10.2px;" transform="translate(143.25592041015625,35)" y="0" x="0" id="text-entity-Address-a6a9835c-5726-4bbb-bb87-ad00c10530ae-attr-1-comment" class="er entityLabel"/><rect height="22" width="54.095550537109375" y="46" x="0" class="er attributeBoxEven"/><text style="dominant-baseline: middle; font-size: 10.2px;" transform="translate(5,57)" y="0" x="0" id="text-entity-Address-a6a9835c-5726-4bbb-bb87-ad00c10530ae-attr-2-type" class="er entityLabel">String</text><rect height="22" width="61.472686767578125" y="46" x="54.095550537109375" class="er attributeBoxEven"/><text style="dominant-baseline: middle; font-size: 10.2px;" transform="translate(59.095550537109375,57)" y="0" x="0" id="text-entity-Address-a6a9835c-5726-4bbb-bb87-ad00c10530ae-attr-2-name" class="er entityLabel">cep</text><rect height="22" width="22.68768310546875" y="46" x="115.5682373046875" class="er attributeBoxEven"/><text style="dominant-baseline: middle; font-size: 10.2px;" transform="translate(120.5682373046875,57)" y="0" x="0" id="text-entity-Address-a6a9835c-5726-4bbb-bb87-ad00c10530ae-attr-2-key" class="er entityLabel"/><rect height="22" width="47.21253967285156" y="46" x="138.25592041015625" class="er attributeBoxEven"/><text style="dominant-baseline: middle; font-size: 10.2px;" transform="translate(143.25592041015625,57)" y="0" x="0" id="text-entity-Address-a6a9835c-5726-4bbb-bb87-ad00c10530ae-attr-2-comment" class="er entityLabel"/><rect height="22" width="54.095550537109375" y="68" x="0" class="er attributeBoxOdd"/><text style="dominant-baseline: middle; font-size: 10.2px;" transform="translate(5,79)" y="0" x="0" id="text-entity-Address-a6a9835c-5726-4bbb-bb87-ad00c10530ae-attr-3-type" class="er entityLabel">String</text><rect height="22" width="61.472686767578125" y="68" x="54.095550537109375" class="er attributeBoxOdd"/><text style="dominant-baseline: middle; font-size: 10.2px;" transform="translate(59.095550537109375,79)" y="0" x="0" id="text-entity-Address-a6a9835c-5726-4bbb-bb87-ad00c10530ae-attr-3-name" class="er entityLabel">city</text><rect height="22" width="22.68768310546875" y="68" x="115.5682373046875" class="er attributeBoxOdd"/><text style="dominant-baseline: middle; font-size: 10.2px;" transform="translate(120.5682373046875,79)" y="0" x="0" id="text-entity-Address-a6a9835c-5726-4bbb-bb87-ad00c10530ae-attr-3-key" class="er entityLabel"/><rect height="22" width="47.21253967285156" y="68" x="138.25592041015625" class="er attributeBoxOdd"/><text style="dominant-baseline: middle; font-size: 10.2px;" transform="translate(143.25592041015625,79)" y="0" x="0" id="text-entity-Address-a6a9835c-5726-4bbb-bb87-ad00c10530ae-attr-3-comment" class="er entityLabel"/><rect height="22" width="54.095550537109375" y="90" x="0" class="er attributeBoxEven"/><text style="dominant-baseline: middle; font-size: 10.2px;" transform="translate(5,101)" y="0" x="0" id="text-entity-Address-a6a9835c-5726-4bbb-bb87-ad00c10530ae-attr-4-type" class="er entityLabel">String</text><rect height="22" width="61.472686767578125" y="90" x="54.095550537109375" class="er attributeBoxEven"/><text style="dominant-baseline: middle; font-size: 10.2px;" transform="translate(59.095550537109375,101)" y="0" x="0" id="text-entity-Address-a6a9835c-5726-4bbb-bb87-ad00c10530ae-attr-4-name" class="er entityLabel">street</text><rect height="22" width="22.68768310546875" y="90" x="115.5682373046875" class="er attributeBoxEven"/><text style="dominant-baseline: middle; font-size: 10.2px;" transform="translate(120.5682373046875,101)" y="0" x="0" id="text-entity-Address-a6a9835c-5726-4bbb-bb87-ad00c10530ae-attr-4-key" class="er entityLabel"/><rect height="22" width="47.21253967285156" y="90" x="138.25592041015625" class="er attributeBoxEven"/><text style="dominant-baseline: middle; font-size: 10.2px;" transform="translate(143.25592041015625,101)" y="0" x="0" id="text-entity-Address-a6a9835c-5726-4bbb-bb87-ad00c10530ae-attr-4-comment" class="er entityLabel"/><rect height="22" width="54.095550537109375" y="112" x="0" class="er attributeBoxOdd"/><text style="dominant-baseline: middle; font-size: 10.2px;" transform="translate(5,123)" y="0" x="0" id="text-entity-Address-a6a9835c-5726-4bbb-bb87-ad00c10530ae-attr-5-type" class="er entityLabel">Int</text><rect height="22" width="61.472686767578125" y="112" x="54.095550537109375" class="er attributeBoxOdd"/><text style="dominant-baseline: middle; font-size: 10.2px;" transform="translate(59.095550537109375,123)" y="0" x="0" id="text-entity-Address-a6a9835c-5726-4bbb-bb87-ad00c10530ae-attr-5-name" class="er entityLabel">number</text><rect height="22" width="22.68768310546875" y="112" x="115.5682373046875" class="er attributeBoxOdd"/><text style="dominant-baseline: middle; font-size: 10.2px;" transform="translate(120.5682373046875,123)" y="0" x="0" id="text-entity-Address-a6a9835c-5726-4bbb-bb87-ad00c10530ae-attr-5-key" class="er entityLabel"/><rect height="22" width="47.21253967285156" y="112" x="138.25592041015625" class="er attributeBoxOdd"/><text style="dominant-baseline: middle; font-size: 10.2px;" transform="translate(143.25592041015625,123)" y="0" x="0" id="text-entity-Address-a6a9835c-5726-4bbb-bb87-ad00c10530ae-attr-5-comment" class="er entityLabel">nullable</text><rect height="22" width="54.095550537109375" y="134" x="0" class="er attributeBoxEven"/><text style="dominant-baseline: middle; font-size: 10.2px;" transform="translate(5,145)" y="0" x="0" id="text-entity-Address-a6a9835c-5726-4bbb-bb87-ad00c10530ae-attr-6-type" class="er entityLabel">String</text><rect height="22" width="61.472686767578125" y="134" x="54.095550537109375" class="er attributeBoxEven"/><text style="dominant-baseline: middle; font-size: 10.2px;" transform="translate(59.095550537109375,145)" y="0" x="0" id="text-entity-Address-a6a9835c-5726-4bbb-bb87-ad00c10530ae-attr-6-name" class="er entityLabel">district</text><rect height="22" width="22.68768310546875" y="134" x="115.5682373046875" class="er attributeBoxEven"/><text style="dominant-baseline: middle; font-size: 10.2px;" transform="translate(120.5682373046875,145)" y="0" x="0" id="text-entity-Address-a6a9835c-5726-4bbb-bb87-ad00c10530ae-attr-6-key" class="er entityLabel"/><rect height="22" width="47.21253967285156" y="134" x="138.25592041015625" class="er attributeBoxEven"/><text style="dominant-baseline: middle; font-size: 10.2px;" transform="translate(143.25592041015625,145)" y="0" x="0" id="text-entity-Address-a6a9835c-5726-4bbb-bb87-ad00c10530ae-attr-6-comment" class="er entityLabel"/><rect height="22" width="54.095550537109375" y="156" x="0" class="er attributeBoxOdd"/><text style="dominant-baseline: middle; font-size: 10.2px;" transform="translate(5,167)" y="0" x="0" id="text-entity-Address-a6a9835c-5726-4bbb-bb87-ad00c10530ae-attr-7-type" class="er entityLabel">DateTime</text><rect height="22" width="61.472686767578125" y="156" x="54.095550537109375" class="er attributeBoxOdd"/><text style="dominant-baseline: middle; font-size: 10.2px;" transform="translate(59.095550537109375,167)" y="0" x="0" id="text-entity-Address-a6a9835c-5726-4bbb-bb87-ad00c10530ae-attr-7-name" class="er entityLabel">createdAt</text><rect height="22" width="22.68768310546875" y="156" x="115.5682373046875" class="er attributeBoxOdd"/><text style="dominant-baseline: middle; font-size: 10.2px;" transform="translate(120.5682373046875,167)" y="0" x="0" id="text-entity-Address-a6a9835c-5726-4bbb-bb87-ad00c10530ae-attr-7-key" class="er entityLabel"/><rect height="22" width="47.21253967285156" y="156" x="138.25592041015625" class="er attributeBoxOdd"/><text style="dominant-baseline: middle; font-size: 10.2px;" transform="translate(143.25592041015625,167)" y="0" x="0" id="text-entity-Address-a6a9835c-5726-4bbb-bb87-ad00c10530ae-attr-7-comment" class="er entityLabel"/><rect height="22" width="54.095550537109375" y="178" x="0" class="er attributeBoxEven"/><text style="dominant-baseline: middle; font-size: 10.2px;" transform="translate(5,189)" y="0" x="0" id="text-entity-Address-a6a9835c-5726-4bbb-bb87-ad00c10530ae-attr-8-type" class="er entityLabel">DateTime</text><rect height="22" width="61.472686767578125" y="178" x="54.095550537109375" class="er attributeBoxEven"/><text style="dominant-baseline: middle; font-size: 10.2px;" transform="translate(59.095550537109375,189)" y="0" x="0" id="text-entity-Address-a6a9835c-5726-4bbb-bb87-ad00c10530ae-attr-8-name" class="er entityLabel">modifiedAt</text><rect height="22" width="22.68768310546875" y="178" x="115.5682373046875" class="er attributeBoxEven"/><text style="dominant-baseline: middle; font-size: 10.2px;" transform="translate(120.5682373046875,189)" y="0" x="0" id="text-entity-Address-a6a9835c-5726-4bbb-bb87-ad00c10530ae-attr-8-key" class="er entityLabel"/><rect height="22" width="47.21253967285156" y="178" x="138.25592041015625" class="er attributeBoxEven"/><text style="dominant-baseline: middle; font-size: 10.2px;" transform="translate(143.25592041015625,189)" y="0" x="0" id="text-entity-Address-a6a9835c-5726-4bbb-bb87-ad00c10530ae-attr-8-comment" class="er entityLabel"/></g><rect height="14" width="23.958984375" y="263" x="100.7547378540039" class="er relationshipLabelBox"/><text style="text-anchor: middle; dominant-baseline: middle; font-size: 12px;" y="270" x="112.7342300415039" id="rel1" class="er relationshipLabel">user</text></svg>